<?xml version="1.0" encoding="UTF-8" standalone="no"?>
<!DOCTYPE svg PUBLIC "-//W3C//DTD SVG 1.1//EN" "http://www.w3.org/Graphics/SVG/1.1/DTD/svg11.dtd">
<svg width="100%" height="100%" viewBox="0 0 164 37" version="1.1" xmlns="http://www.w3.org/2000/svg" xmlns:xlink="http://www.w3.org/1999/xlink" xml:space="preserve" xmlns:serif="http://www.serif.com/" style="fill-rule:evenodd;clip-rule:evenodd;stroke-linejoin:round;stroke-miterlimit:2;">
    <g transform="matrix(1.08583,0,0,0.651497,-329.658,-110.35)">
        <g transform="matrix(34.6154,0,0,57.6923,301.234,219.043)">
            <path d="M0.136,-0.776L0.32,-0.772L0.297,-0.581L0.916,-0.6L0.912,-0.444L0.661,-0.441C0.647,-0.357 0.632,-0.274 0.616,-0.192C0.598,-0.102 0.574,-0.014 0.544,0.072L0.372,0.064C0.419,-0.101 0.454,-0.269 0.479,-0.439L0.28,-0.436L0.252,-0.196L0.068,-0.204L0.136,-0.776Z" style="fill:white;fill-rule:nonzero;"/>
        </g>
        <g transform="matrix(34.6154,0,0,57.6923,334.7,219.043)">
            <path d="M0.17,-0.772L0.357,-0.772L0.354,-0.521L0.729,-0.32L0.666,-0.164L0.352,-0.344L0.346,0.036L0.162,0.036L0.17,-0.772Z" style="fill:white;fill-rule:nonzero;"/>
        </g>
        <g transform="matrix(34.6154,0,0,57.6923,363.028,219.043)">
            <path d="M0.036,-0.408L0.032,-0.568L0.237,-0.571L0.224,-0.765L0.384,-0.78L0.397,-0.573L0.565,-0.575C0.56,-0.659 0.552,-0.742 0.544,-0.824L0.708,-0.853C0.72,-0.761 0.73,-0.669 0.736,-0.577L0.972,-0.58L0.972,-0.42L0.742,-0.417C0.742,-0.38 0.742,-0.342 0.74,-0.305C0.738,-0.257 0.733,-0.209 0.728,-0.162C0.722,-0.114 0.714,-0.067 0.704,-0.021C0.694,0.026 0.68,0.072 0.664,0.115C0.607,0.109 0.551,0.103 0.496,0.096C0.516,0.03 0.533,-0.037 0.546,-0.105C0.56,-0.173 0.568,-0.242 0.572,-0.313C0.573,-0.344 0.573,-0.379 0.572,-0.415L0.407,-0.413L0.424,-0.128L0.268,-0.108L0.248,-0.411L0.036,-0.408Z" style="fill:white;fill-rule:nonzero;"/>
        </g>
        <g transform="matrix(34.6154,0,0,57.6923,397.643,219.043)">
            <path d="M0.072,-0.458L0.761,-0.474L0.756,-0.29L0.068,-0.278L0.072,-0.458Z" style="fill:white;fill-rule:nonzero;"/>
        </g>
        <g transform="matrix(34.6154,0,0,57.6923,426.207,219.043)">
            <path d="M0.67,-0.821L0.726,-0.673C0.636,-0.641 0.546,-0.612 0.456,-0.587C0.365,-0.562 0.273,-0.544 0.18,-0.533L0.146,-0.686C0.323,-0.718 0.498,-0.763 0.67,-0.821ZM0.054,-0.388L0.384,-0.4C0.386,-0.442 0.383,-0.486 0.377,-0.532L0.545,-0.536C0.551,-0.491 0.554,-0.447 0.554,-0.406L0.821,-0.416L0.821,-0.256L0.539,-0.249C0.517,-0.117 0.468,0.004 0.394,0.112L0.226,0.04C0.289,-0.045 0.334,-0.14 0.36,-0.244L0.058,-0.236L0.054,-0.388Z" style="fill:white;fill-rule:nonzero;"/>
        </g>
    </g>
</svg>
