<?xml version="1.0" encoding="UTF-8" standalone="no"?><!DOCTYPE svg PUBLIC "-//W3C//DTD SVG 1.1//EN" "http://www.w3.org/Graphics/SVG/1.1/DTD/svg11.dtd"><svg width="100%" height="100%" viewBox="0 0 612 95" version="1.1" xmlns="http://www.w3.org/2000/svg" xmlns:xlink="http://www.w3.org/1999/xlink" xml:space="preserve" xmlns:serif="http://www.serif.com/" style="fill-rule:evenodd;clip-rule:evenodd;stroke-linejoin:round;stroke-miterlimit:2;"><g><g><path d="M8.994,74.169l5.97,-19.566l-7.791,0l1.941,-10.508l8.968,0l3.433,-11.232l-8.243,0l1.925,-10.417l9.692,0l5.353,-17.211l9.33,0l-5.262,17.211l10.598,0l5.353,-17.211l9.33,0l-5.082,17.211l8.243,0l-1.924,10.417l-9.601,0l-3.525,11.232l8.878,0l-1.941,10.508l-10.055,0l-5.969,19.566l-9.511,0l5.878,-19.566l-10.507,0l-5.97,19.566l-9.511,0Zm18.599,-30.074l10.508,0l3.524,-11.232l-10.598,0l-3.434,11.232Z" style="fill:#005493;fill-rule:nonzero;"/><path d="M1.909,74.169l5.969,-19.566l-7.79,0l1.941,-10.508l8.967,0l3.434,-11.232l-8.243,0l1.924,-10.417l9.692,0l5.353,-17.211l9.33,0l-5.262,17.211l10.598,0l5.353,-17.211l9.33,0l-5.081,17.211l8.243,0l-1.924,10.417l-9.602,0l-3.524,11.232l8.877,0l-1.941,10.508l-10.055,0l-5.969,19.566l-9.511,0l5.879,-19.566l-10.508,0l-5.969,19.566l-9.511,0Zm18.599,-30.074l10.507,0l3.524,-11.232l-10.598,0l-3.433,11.232Z" style="fill:#0387c5;fill-rule:nonzero;"/></g><g><path d="M64.34,74.169l12.75,-69.024l17.935,0l5.456,29.801c0.146,0.846 0.639,5.043 1.479,12.591l0.453,0c0.75,-1.449 1.796,-3.593 3.135,-6.431c1.34,-2.838 2.338,-4.891 2.995,-6.16l16.012,-29.801l18.026,0l-12.75,69.024l-15.127,0l4.367,-23.642c0.714,-3.865 2.911,-11.837 6.591,-23.914l-0.362,0l-8.842,16.486l-13.891,25.182l-9.149,0l-4.679,-25.182l-2.571,-16.486l-0.362,0c-0.782,12.077 -1.529,20.049 -2.243,23.914l-4.367,23.642l-14.856,0Z" style="fill:#005493;fill-rule:nonzero;"/><path d="M57.255,74.169l12.749,-69.024l17.936,0l5.455,29.801c0.146,0.846 0.639,5.043 1.479,12.591l0.453,0c0.751,-1.449 1.796,-3.593 3.136,-6.431c1.339,-2.838 2.337,-4.891 2.994,-6.16l16.013,-29.801l18.025,0l-12.749,69.024l-15.127,0l4.367,-23.642c0.713,-3.865 2.911,-11.837 6.591,-23.914l-0.363,0l-8.842,16.486l-13.891,25.182l-9.149,0l-4.678,-25.182l-2.571,-16.486l-0.363,0c-0.781,12.077 -1.529,20.049 -2.243,23.914l-4.367,23.642l-14.855,0Z" style="fill:#0387c5;fill-rule:nonzero;"/></g><g><path d="M147.189,94.459c-2.838,0 -5.373,-0.332 -7.606,-0.996l5.298,-12.501c2.036,0.423 3.174,0.634 3.416,0.634c4.529,0 7.848,-2.113 9.958,-6.34l1.3,-2.627l-10.82,-51.27l16.667,0l2.926,21.921c0.343,2.717 0.812,7.7 1.406,14.946l0.453,0c0.674,-1.691 2.742,-6.673 6.203,-14.946l10.118,-21.921l15.671,0l-27.888,52.9c-4.034,7.126 -8.065,12.274 -12.092,15.445c-4.028,3.17 -9.031,4.755 -15.01,4.755Z" style="fill:#005493;fill-rule:nonzero;"/><path d="M140.104,94.459c-2.839,0 -5.374,-0.332 -7.606,-0.996l5.298,-12.501c2.035,0.423 3.174,0.634 3.415,0.634c4.53,0 7.849,-2.113 9.958,-6.34l1.301,-2.627l-10.821,-51.27l16.668,0l2.925,21.921c0.344,2.717 0.812,7.7 1.406,14.946l0.453,0c0.675,-1.691 2.743,-6.673 6.203,-14.946l10.118,-21.921l15.671,0l-27.888,52.9c-4.034,7.126 -8.064,12.274 -12.092,15.445c-4.028,3.17 -9.031,4.755 -15.009,4.755Z" style="fill:#0387c5;fill-rule:nonzero;"/></g><g><path d="M201.663,74.169l12.75,-69.024l44.023,0l-2.543,13.768l-27.447,0l-2.794,15.128l23.552,0l-2.544,13.768l-23.551,0l-4.869,26.36l-16.577,0Z" style="fill:#005493;fill-rule:nonzero;"/><path d="M194.578,74.169l12.749,-69.024l44.024,0l-2.544,13.768l-27.446,0l-2.794,15.128l23.551,0l-2.543,13.768l-23.552,0l-4.869,26.36l-16.576,0Z" style="fill:#0387c5;fill-rule:nonzero;"/></g><g><path d="M269.457,75.437c-4.771,0 -8.291,-1.54 -10.56,-4.62c-2.27,-3.08 -2.986,-6.884 -2.15,-11.413c1.038,-5.616 4.166,-9.964 9.385,-13.044c5.218,-3.08 13.067,-5.194 23.545,-6.341c0.474,-4.529 -1.765,-6.794 -6.717,-6.794c-3.744,0 -8.653,1.57 -14.729,4.711l-3.699,-10.87c8.649,-4.65 16.627,-6.975 23.934,-6.975c14.252,0 19.894,8.032 16.927,24.095l-5.538,29.983l-13.406,0l-0.298,-5.254l-0.362,0c-5.635,4.348 -11.079,6.522 -16.332,6.522Zm8.065,-12.772c2.718,0 5.632,-1.389 8.741,-4.167l1.556,-8.424c-9.341,1.207 -14.397,3.895 -15.167,8.062c-0.557,3.019 1.066,4.529 4.87,4.529Z" style="fill:#005493;fill-rule:nonzero;"/><path d="M262.371,75.437c-4.771,0 -8.291,-1.54 -10.56,-4.62c-2.269,-3.08 -2.986,-6.884 -2.149,-11.413c1.037,-5.616 4.165,-9.964 9.384,-13.044c5.219,-3.08 13.067,-5.194 23.545,-6.341c0.474,-4.529 -1.764,-6.794 -6.716,-6.794c-3.744,0 -8.654,1.57 -14.729,4.711l-3.699,-10.87c8.649,-4.65 16.627,-6.975 23.934,-6.975c14.251,0 19.894,8.032 16.926,24.095l-5.538,29.983l-13.406,0l-0.298,-5.254l-0.362,0c-5.634,4.348 -11.078,6.522 -16.332,6.522Zm8.066,-12.772c2.717,0 5.631,-1.389 8.741,-4.167l1.556,-8.424c-9.342,1.207 -14.398,3.895 -15.167,8.062c-0.558,3.019 1.065,4.529 4.87,4.529Z" style="fill:#0387c5;fill-rule:nonzero;"/></g><g><path d="M324.674,74.169l-7.818,-52.81l16.667,0l1.84,24.367c0.21,3.442 0.54,8.847 0.991,16.214l0.453,0c0.697,-1.812 2.993,-7.216 6.89,-16.214l11.023,-24.367l15.851,0l-26.784,52.81l-19.113,0Z" style="fill:#005493;fill-rule:nonzero;"/><path d="M317.589,74.169l-7.819,-52.81l16.668,0l1.84,24.367c0.209,3.442 0.539,8.847 0.99,16.214l0.453,0c0.697,-1.812 2.994,-7.216 6.89,-16.214l11.023,-24.367l15.852,0l-26.784,52.81l-19.113,0Z" style="fill:#0387c5;fill-rule:nonzero;"/></g><g><path d="M377.657,74.169l12.75,-69.024l44.023,0l-2.543,13.768l-27.447,0l-2.794,15.128l23.551,0l-2.543,13.768l-23.551,0l-4.869,26.36l-16.577,0Z" style="fill:#005493;fill-rule:nonzero;"/><path d="M370.571,74.169l12.75,-69.024l44.023,0l-2.543,13.768l-27.447,0l-2.794,15.128l23.552,0l-2.543,13.768l-23.552,0l-4.869,26.36l-16.577,0Z" style="fill:#0387c5;fill-rule:nonzero;"/></g><g><path d="M455.052,75.437c-7.065,0 -12.687,-2.506 -16.864,-7.519c-4.177,-5.012 -5.49,-11.715 -3.939,-20.109c1.55,-8.394 5.342,-15.112 11.377,-20.154c6.034,-5.043 12.584,-7.564 19.649,-7.564c7.005,0 12.578,2.521 16.72,7.564c4.141,5.042 5.436,11.76 3.886,20.154c-1.551,8.394 -5.325,15.097 -11.324,20.109c-5.998,5.013 -12.5,7.519 -19.505,7.519Zm2.46,-13.316c5.918,0 9.758,-4.771 11.52,-14.312c1.774,-9.602 -0.298,-14.403 -6.216,-14.403c-6.039,0 -9.945,4.801 -11.719,14.403c-1.762,9.541 0.376,14.312 6.415,14.312Z" style="fill:#005493;fill-rule:nonzero;"/><path d="M447.966,75.437c-7.065,0 -12.686,-2.506 -16.863,-7.519c-4.177,-5.012 -5.49,-11.715 -3.94,-20.109c1.551,-8.394 5.343,-15.112 11.377,-20.154c6.034,-5.043 12.584,-7.564 19.65,-7.564c7.005,0 12.578,2.521 16.719,7.564c4.141,5.042 5.437,11.76 3.886,20.154c-1.55,8.394 -5.325,15.097 -11.323,20.109c-5.999,5.013 -12.5,7.519 -19.506,7.519Zm2.46,-13.316c5.918,0 9.758,-4.771 11.521,-14.312c1.773,-9.602 -0.299,-14.403 -6.217,-14.403c-6.039,0 -9.945,4.801 -11.719,14.403c-1.762,9.541 0.376,14.312 6.415,14.312Z" style="fill:#0387c5;fill-rule:nonzero;"/></g><g><path d="M514.112,75.437c-7.066,0 -12.687,-2.506 -16.864,-7.519c-4.177,-5.012 -5.49,-11.715 -3.94,-20.109c1.551,-8.394 5.343,-15.112 11.377,-20.154c6.035,-5.043 12.585,-7.564 19.65,-7.564c7.005,0 12.578,2.521 16.719,7.564c4.142,5.042 5.437,11.76 3.886,20.154c-1.55,8.394 -5.324,15.097 -11.323,20.109c-5.998,5.013 -12.5,7.519 -19.505,7.519Zm2.459,-13.316c5.918,0 9.759,-4.771 11.521,-14.312c1.774,-9.602 -0.299,-14.403 -6.217,-14.403c-6.038,0 -9.945,4.801 -11.718,14.403c-1.763,9.541 0.376,14.312 6.414,14.312Z" style="fill:#005493;fill-rule:nonzero;"/><path d="M507.026,75.437c-7.065,0 -12.686,-2.506 -16.863,-7.519c-4.177,-5.012 -5.491,-11.715 -3.94,-20.109c1.55,-8.394 5.343,-15.112 11.377,-20.154c6.034,-5.043 12.584,-7.564 19.649,-7.564c7.005,0 12.579,2.521 16.72,7.564c4.141,5.042 5.436,11.76 3.886,20.154c-1.551,8.394 -5.325,15.097 -11.323,20.109c-5.999,5.013 -12.501,7.519 -19.506,7.519Zm2.46,-13.316c5.918,0 9.758,-4.771 11.521,-14.312c1.773,-9.602 -0.299,-14.403 -6.217,-14.403c-6.039,0 -9.945,4.801 -11.719,14.403c-1.762,9.541 0.376,14.312 6.415,14.312Z" style="fill:#0387c5;fill-rule:nonzero;"/></g><g><path d="M569.186,75.437c-6.582,0 -11.379,-2.476 -14.389,-7.428c-3.011,-4.952 -3.73,-11.685 -2.157,-20.2c1.528,-8.273 4.953,-14.961 10.273,-20.064c5.321,-5.103 10.88,-7.654 16.677,-7.654c2.778,0 5.035,0.453 6.769,1.359c1.735,0.905 3.372,2.264 4.909,4.076l0.822,-7.881l3.246,-17.573l16.576,0l-13.687,74.097l-13.406,0l-0.331,-5.073l-0.362,0c-5.008,4.227 -9.988,6.341 -14.94,6.341Zm6.841,-13.497c3.321,0 6.222,-1.48 8.701,-4.439l3.848,-20.834c-1.904,-2.113 -4.427,-3.17 -7.567,-3.17c-2.476,0 -4.78,1.193 -6.911,3.578c-2.132,2.385 -3.621,5.873 -4.469,10.462c-1.773,9.602 0.359,14.403 6.398,14.403Z" style="fill:#005493;fill-rule:nonzero;"/><path d="M562.1,75.437c-6.582,0 -11.378,-2.476 -14.389,-7.428c-3.01,-4.952 -3.729,-11.685 -2.157,-20.2c1.529,-8.273 4.953,-14.961 10.274,-20.064c5.32,-5.103 10.879,-7.654 16.677,-7.654c2.778,0 5.034,0.453 6.769,1.359c1.735,0.905 3.371,2.264 4.908,4.076l0.822,-7.881l3.246,-17.573l16.577,0l-13.687,74.097l-13.406,0l-0.331,-5.073l-0.363,0c-5.008,4.227 -9.988,6.341 -14.94,6.341Zm6.841,-13.497c3.322,0 6.222,-1.48 8.701,-4.439l3.848,-20.834c-1.904,-2.113 -4.426,-3.17 -7.567,-3.17c-2.475,0 -4.779,1.193 -6.911,3.578c-2.131,2.385 -3.621,5.873 -4.468,10.462c-1.774,9.602 0.359,14.403 6.397,14.403Z" style="fill:#0387c5;fill-rule:nonzero;"/></g></g></svg>