<?xml version="1.0" encoding="UTF-8" standalone="no"?>
<!DOCTYPE svg PUBLIC "-//W3C//DTD SVG 1.1//EN" "http://www.w3.org/Graphics/SVG/1.1/DTD/svg11.dtd">
<svg width="100%" height="100%" viewBox="0 0 300 300" version="1.1" xmlns="http://www.w3.org/2000/svg" xmlns:xlink="http://www.w3.org/1999/xlink" xml:space="preserve" xmlns:serif="http://www.serif.com/" style="fill-rule:evenodd;clip-rule:evenodd;stroke-linejoin:round;stroke-miterlimit:2;">
    <g transform="matrix(1.54627,0,0,1.54627,-142.245,-148.442)">
        <path d="M189,96C201.534,113.95 217.912,151.785 220.74,160.36C249.888,161.144 269.495,162.731 286.008,166.48C273.909,184.7 256.808,199.949 238.294,211.739C242.187,240.71 242.04,252.295 239.434,275.76C215.427,260.222 203.832,251.359 189,245.121C175.138,251.816 160.919,259.816 138.566,275.76C135.5,256.276 136.367,242.015 139.706,211.739C124.158,201.176 107.783,185.058 91.992,166.48C112.315,162.968 129.881,161.175 156.58,160.36C162.511,146.563 175.696,115.066 189,96ZM188.955,111.206C178.412,129.372 168.803,152.395 164.006,163.553L161.973,168.283L156.826,168.44C137.056,169.044 122.382,170.189 107.804,172.195C120.002,185.517 132.363,196.977 144.249,205.053L148.275,207.788L147.742,212.626C145.297,234.79 144.173,248.073 145.061,261.395C161.78,250.07 173.76,243.504 185.484,237.841L188.77,236.254L192.134,237.669C204.83,243.009 215.239,250.175 232.669,261.671C233.805,246.597 233.254,234.935 230.282,212.816L229.594,207.696L233.951,204.921C248.001,195.973 261.218,184.953 271.817,172.056C258.233,170.019 242.041,169.02 220.523,168.441L214.843,168.289L213.063,162.892C210.804,156.042 199.614,129.886 188.955,111.206Z" style="fill:rgb(198,148,0);"/>
    </g>
</svg>
