<?xml version="1.0" encoding="UTF-8" standalone="no"?>
<!DOCTYPE svg PUBLIC "-//W3C//DTD SVG 1.1//EN" "http://www.w3.org/Graphics/SVG/1.1/DTD/svg11.dtd">
<svg width="100%" height="100%" viewBox="0 0 350 216" version="1.1" xmlns="http://www.w3.org/2000/svg" xmlns:xlink="http://www.w3.org/1999/xlink" xml:space="preserve" xmlns:serif="http://www.serif.com/" style="fill-rule:evenodd;clip-rule:evenodd;stroke-linejoin:round;stroke-miterlimit:2;">
    <g transform="matrix(0.54701,0,0,0.54701,-525.172,-150.887)">
        <g transform="matrix(0.871907,0,0,0.871907,149.137,128.029)">
            <path d="M1136.96,354.091C1175.73,341.139 1226.26,342.081 1291.39,360.016C1332.24,346.892 1389.92,340.543 1423.35,346.072C1450.71,350.597 1483.47,366.746 1491.97,393.192C1498.35,413.043 1504.05,448.33 1505.61,484.419C1507.85,484.203 1510.08,483.955 1512.3,483.672C1524.19,481.727 1533.31,478.315 1539.98,471.742C1550.74,459.379 1567.76,447.823 1593.43,437.385C1603.14,434.443 1611.93,431.908 1624.92,440.248C1629.58,444.136 1634.38,449.057 1639.71,457.427C1643.35,465.342 1642.89,472.56 1634.46,478.423L1653.55,494.17C1662.73,501.925 1669.76,515.758 1656.89,532.823C1648.5,542.003 1637.1,550.026 1619.67,555.728C1596.91,558.025 1584.43,548.61 1575.77,514.212L1559.55,521.847C1553.57,525.586 1548.71,524.42 1544.28,521.37C1530.48,516.027 1517.75,512.434 1505.97,510.431C1505.54,534.53 1502.83,557.387 1496.77,574.46C1479.78,609.953 1446.27,621.096 1400.32,613.887C1374.26,609.391 1348.23,604.775 1322.58,597.539C1248.48,626.146 1190.39,629.364 1145.99,610.854C1119.47,602.076 1093.02,559.11 1085.92,506.472C1084.51,506.623 1083.1,506.788 1081.7,506.967C1069.81,508.912 1060.69,512.324 1054.02,518.896C1043.26,531.26 1026.24,542.815 1000.57,553.254C990.86,556.196 982.065,558.731 969.08,550.391C964.425,546.503 959.615,541.582 954.287,533.212C950.65,525.296 951.111,518.078 959.536,512.216L940.448,496.468C931.273,488.714 924.238,474.881 937.108,457.816C945.501,448.636 956.9,440.613 974.329,434.911C997.091,432.614 1009.57,442.029 1018.23,476.426L1034.45,468.791C1040.43,465.052 1045.29,466.219 1049.72,469.269C1061.99,474.02 1073.42,477.387 1084.08,479.483C1084.08,479.094 1084.08,478.715 1084.08,478.335C1084.31,417.771 1107,363.019 1136.96,354.091ZM1103.37,505.596C1105.05,518.99 1107.94,532.256 1112.32,545.035C1115.22,553.506 1118.77,561.801 1123.28,569.549C1124.53,571.708 1125.87,573.822 1127.29,575.873C1128.37,577.42 1129.49,578.931 1130.68,580.392C1131.62,581.548 1132.6,582.672 1133.62,583.754C1134.5,584.679 1135.4,585.572 1136.35,586.426C1137.06,587.072 1137.79,587.694 1138.55,588.288C1142.96,591.749 1148.54,594.507 1154.29,593.754C1155.35,593.616 1156.38,593.363 1157.38,593.011C1159.06,592.422 1160.62,591.559 1162.06,590.527C1164.42,588.839 1166.44,586.714 1168.21,584.431C1171.04,580.786 1173.28,576.7 1175.18,572.508C1177.43,567.556 1179.21,562.399 1180.7,557.174C1182.54,550.749 1183.93,544.201 1185.02,537.609C1186.38,529.377 1187.25,521.067 1187.74,512.739C1188.36,502.105 1188.34,491.438 1187.77,480.803C1186.87,463.841 1184.66,446.902 1180.9,430.332C1178.73,420.744 1176.03,411.237 1172.43,402.078C1171.47,399.62 1170.43,397.188 1169.31,394.796C1168.47,392.995 1167.58,391.216 1166.62,389.471C1165.81,387.976 1164.94,386.506 1164.02,385.071C1163.31,383.958 1162.57,382.867 1161.78,381.806C1161.19,381.01 1160.58,380.231 1159.93,379.474C1159.4,378.847 1158.86,378.236 1158.29,377.645C1155.26,374.498 1151.47,371.729 1147.05,371.094C1146.35,370.994 1145.65,370.949 1144.95,370.959C1143.46,370.983 1141.97,371.216 1140.54,371.618C1138.56,372.173 1136.68,373.056 1134.94,374.149C1132.31,375.802 1129.99,377.919 1127.92,380.23C1124.82,383.699 1122.25,387.627 1120.01,391.7C1117.35,396.548 1115.15,401.646 1113.25,406.84C1111.03,412.948 1109.22,419.208 1107.73,425.534C1105.65,434.33 1104.18,443.267 1103.2,452.25C1102.15,461.97 1101.66,471.753 1101.75,481.53L1101.75,481.861C1116.72,482.884 1130,481.098 1141.82,476.904C1149.95,487.473 1148.62,498.513 1143.25,505.058C1129.78,504.831 1116.47,504.628 1103.32,505.196L1103.37,505.596Z" style="fill:white;"/>
        </g>
        <g transform="matrix(116.003,-28.4842,28.4842,116.003,988.566,470.03)">
            <path d="M0.136,-0.776L0.32,-0.772L0.297,-0.581L0.916,-0.6L0.912,-0.444L0.661,-0.441C0.647,-0.357 0.632,-0.274 0.616,-0.192C0.598,-0.102 0.574,-0.014 0.544,0.072L0.372,0.064C0.419,-0.101 0.454,-0.269 0.479,-0.439L0.28,-0.436L0.252,-0.196L0.068,-0.204L0.136,-0.776Z" style="fill:white;fill-rule:nonzero;"/>
        </g>
        <g transform="matrix(118.097,-17.9196,17.9196,118.097,1107.29,401.388)">
            <path d="M0.17,-0.772L0.357,-0.772L0.354,-0.521L0.729,-0.32L0.666,-0.164L0.352,-0.344L0.346,0.036L0.162,0.036L0.17,-0.772Z" style="fill:white;fill-rule:nonzero;"/>
        </g>
        <g transform="matrix(119.449,0,0,119.449,1222.04,379.088)">
            <path d="M0.036,-0.408L0.032,-0.568L0.237,-0.571L0.224,-0.765L0.384,-0.78L0.397,-0.573L0.565,-0.575C0.56,-0.659 0.552,-0.742 0.544,-0.824L0.708,-0.853C0.72,-0.761 0.73,-0.669 0.736,-0.577L0.972,-0.58L0.972,-0.42L0.742,-0.417C0.742,-0.38 0.742,-0.342 0.74,-0.305C0.738,-0.257 0.733,-0.209 0.728,-0.162C0.722,-0.114 0.714,-0.067 0.704,-0.021C0.694,0.026 0.68,0.072 0.664,0.115C0.607,0.109 0.551,0.103 0.496,0.096C0.516,0.03 0.533,-0.037 0.546,-0.105C0.56,-0.173 0.568,-0.242 0.572,-0.313C0.573,-0.344 0.573,-0.379 0.572,-0.415L0.407,-0.413L0.424,-0.128L0.268,-0.108L0.248,-0.411L0.036,-0.408Z" style="fill:white;fill-rule:nonzero;"/>
        </g>
        <g transform="matrix(114.508,33.9998,-33.9998,114.508,1363.32,382.004)">
            <path d="M0.072,-0.458L0.761,-0.474L0.756,-0.29L0.068,-0.278L0.072,-0.458Z" style="fill:white;fill-rule:nonzero;"/>
        </g>
        <g transform="matrix(117.072,23.714,-23.714,117.072,1474.52,444.428)">
            <path d="M0.67,-0.821L0.726,-0.673C0.636,-0.641 0.546,-0.612 0.456,-0.587C0.365,-0.562 0.273,-0.544 0.18,-0.533L0.146,-0.686C0.323,-0.718 0.498,-0.763 0.67,-0.821ZM0.054,-0.388L0.384,-0.4C0.386,-0.442 0.383,-0.486 0.377,-0.532L0.545,-0.536C0.551,-0.491 0.554,-0.447 0.554,-0.406L0.821,-0.416L0.821,-0.256L0.539,-0.249C0.517,-0.117 0.468,0.004 0.394,0.112L0.226,0.04C0.289,-0.045 0.334,-0.14 0.36,-0.244L0.058,-0.236L0.054,-0.388Z" style="fill:white;fill-rule:nonzero;"/>
        </g>
        <g transform="matrix(40.5335,0,0,40.5335,1219.21,562.522)">
            <path d="M0.452,0.062L0.431,0.062L0.144,-0.35L0.386,-0.628L0.397,-0.628C0.422,-0.628 0.434,-0.64 0.435,-0.665C0.435,-0.69 0.422,-0.702 0.397,-0.702L0.302,-0.702C0.277,-0.702 0.265,-0.689 0.265,-0.664C0.267,-0.64 0.275,-0.628 0.289,-0.628L0.141,-0.461L0.141,-0.628L0.148,-0.628C0.172,-0.628 0.184,-0.64 0.185,-0.664C0.185,-0.689 0.172,-0.702 0.147,-0.702L0.048,-0.702C0.024,-0.702 0.011,-0.689 0.011,-0.664C0.014,-0.643 0.026,-0.631 0.047,-0.628L0.066,-0.628L0.066,0.062L0.048,0.062C0.025,0.061 0.013,0.073 0.011,0.099C0.011,0.123 0.023,0.135 0.047,0.136L0.156,0.136C0.179,0.136 0.191,0.123 0.192,0.099C0.192,0.073 0.18,0.061 0.155,0.062L0.141,0.062L0.141,-0.226L0.341,0.062C0.328,0.062 0.321,0.075 0.319,0.099C0.323,0.121 0.335,0.133 0.356,0.136L0.452,0.136C0.476,0.136 0.489,0.124 0.489,0.1C0.489,0.074 0.477,0.062 0.452,0.062Z" style="fill:rgb(0,135,197);fill-rule:nonzero;"/>
        </g>
        <g transform="matrix(40.5335,0,0,40.5335,1239.48,562.522)">
            <path d="M0.039,-0.133C0.038,-0.054 0.056,0.01 0.092,0.06C0.128,0.11 0.191,0.133 0.281,0.13C0.372,0.127 0.429,0.08 0.454,-0.013C0.459,-0.038 0.448,-0.052 0.422,-0.055C0.398,-0.059 0.384,-0.049 0.38,-0.022C0.377,-0.009 0.369,0.008 0.356,0.029C0.343,0.049 0.308,0.059 0.251,0.057C0.194,0.056 0.157,0.038 0.14,0.006C0.122,-0.027 0.113,-0.073 0.113,-0.133C0.111,-0.181 0.12,-0.227 0.141,-0.272C0.162,-0.317 0.198,-0.34 0.248,-0.344C0.298,-0.347 0.331,-0.336 0.346,-0.311C0.361,-0.286 0.37,-0.262 0.374,-0.24L0.187,-0.24C0.162,-0.24 0.149,-0.228 0.148,-0.203C0.148,-0.178 0.16,-0.166 0.185,-0.166L0.417,-0.166C0.427,-0.166 0.435,-0.169 0.441,-0.174C0.448,-0.18 0.452,-0.189 0.453,-0.202C0.451,-0.256 0.435,-0.305 0.408,-0.351C0.38,-0.396 0.328,-0.418 0.252,-0.416C0.176,-0.413 0.121,-0.382 0.086,-0.323C0.052,-0.264 0.036,-0.201 0.039,-0.133Z" style="fill:rgb(0,135,197);fill-rule:nonzero;"/>
        </g>
        <g transform="matrix(40.5335,0,0,40.5335,1259.74,562.522)">
            <path d="M0.414,0.036C0.395,0.02 0.377,0.02 0.362,0.035C0.343,0.054 0.323,0.061 0.301,0.057C0.279,0.052 0.269,0.035 0.269,0.005L0.269,-0.259L0.365,-0.259C0.388,-0.259 0.4,-0.271 0.401,-0.296C0.401,-0.321 0.389,-0.333 0.363,-0.333L0.269,-0.333L0.269,-0.463C0.269,-0.488 0.257,-0.5 0.232,-0.499C0.207,-0.5 0.194,-0.487 0.194,-0.462L0.194,-0.333L0.105,-0.333C0.08,-0.333 0.067,-0.321 0.067,-0.296C0.068,-0.271 0.08,-0.259 0.104,-0.259L0.194,-0.259L0.194,0.005C0.192,0.061 0.216,0.099 0.268,0.121C0.319,0.142 0.367,0.132 0.41,0.091C0.425,0.073 0.426,0.055 0.414,0.036Z" style="fill:rgb(0,135,197);fill-rule:nonzero;"/>
        </g>
        <g transform="matrix(40.5335,0,0,40.5335,1280.01,562.522)">
            <path d="M0.055,-0.135C0.055,-0.072 0.07,-0.013 0.1,0.044C0.13,0.101 0.182,0.13 0.254,0.133C0.324,0.13 0.374,0.099 0.402,0.042C0.431,-0.016 0.445,-0.075 0.445,-0.135C0.445,-0.187 0.431,-0.243 0.402,-0.302C0.373,-0.362 0.324,-0.395 0.254,-0.402C0.183,-0.402 0.132,-0.37 0.101,-0.309C0.07,-0.247 0.055,-0.189 0.055,-0.135ZM0.129,-0.135C0.129,-0.17 0.139,-0.21 0.159,-0.256C0.179,-0.301 0.21,-0.326 0.254,-0.328C0.299,-0.32 0.33,-0.294 0.346,-0.251C0.363,-0.208 0.371,-0.169 0.371,-0.135C0.371,-0.092 0.363,-0.051 0.347,-0.01C0.33,0.031 0.299,0.054 0.254,0.059C0.209,0.055 0.177,0.032 0.158,-0.009C0.139,-0.05 0.129,-0.092 0.129,-0.135Z" style="fill:rgb(0,135,197);fill-rule:nonzero;"/>
        </g>
        <g transform="matrix(40.5335,0,0,40.5335,1300.28,562.522)">
            <path d="M0.434,-0.161C0.397,-0.25 0.338,-0.313 0.255,-0.348C0.172,-0.383 0.125,-0.414 0.113,-0.441C0.101,-0.469 0.098,-0.496 0.105,-0.523C0.112,-0.55 0.125,-0.575 0.146,-0.599C0.167,-0.623 0.195,-0.636 0.232,-0.639C0.27,-0.641 0.3,-0.623 0.325,-0.583C0.349,-0.544 0.359,-0.496 0.354,-0.438C0.353,-0.417 0.365,-0.405 0.391,-0.403C0.412,-0.403 0.424,-0.415 0.427,-0.438C0.437,-0.507 0.425,-0.57 0.392,-0.628C0.358,-0.686 0.311,-0.715 0.248,-0.715C0.186,-0.715 0.135,-0.698 0.096,-0.665C0.057,-0.632 0.034,-0.581 0.026,-0.512C0.019,-0.443 0.038,-0.392 0.084,-0.359C0.13,-0.327 0.18,-0.3 0.236,-0.278C0.292,-0.257 0.336,-0.207 0.366,-0.13C0.388,-0.076 0.374,-0.027 0.326,0.016C0.278,0.059 0.229,0.069 0.18,0.045C0.13,0.021 0.105,-0.013 0.105,-0.058C0.105,-0.102 0.122,-0.147 0.155,-0.193C0.169,-0.213 0.167,-0.229 0.149,-0.242C0.127,-0.257 0.109,-0.255 0.096,-0.234C0.051,-0.173 0.031,-0.11 0.035,-0.045C0.039,0.02 0.079,0.071 0.154,0.108C0.23,0.146 0.304,0.134 0.376,0.073C0.448,0.013 0.467,-0.065 0.434,-0.161Z" style="fill:rgb(0,135,197);fill-rule:nonzero;"/>
        </g>
        <g transform="matrix(40.5335,0,0,40.5335,1320.54,562.522)">
            <path d="M0.039,-0.133C0.038,-0.054 0.056,0.01 0.092,0.06C0.128,0.11 0.191,0.133 0.281,0.13C0.372,0.127 0.429,0.08 0.454,-0.013C0.459,-0.038 0.448,-0.052 0.422,-0.055C0.398,-0.059 0.384,-0.049 0.38,-0.022C0.377,-0.009 0.369,0.008 0.356,0.029C0.343,0.049 0.308,0.059 0.251,0.057C0.194,0.056 0.157,0.038 0.14,0.006C0.122,-0.027 0.113,-0.073 0.113,-0.133C0.111,-0.181 0.12,-0.227 0.141,-0.272C0.162,-0.317 0.198,-0.34 0.248,-0.344C0.298,-0.347 0.331,-0.336 0.346,-0.311C0.361,-0.286 0.37,-0.262 0.374,-0.24L0.187,-0.24C0.162,-0.24 0.149,-0.228 0.148,-0.203C0.148,-0.178 0.16,-0.166 0.185,-0.166L0.417,-0.166C0.427,-0.166 0.435,-0.169 0.441,-0.174C0.448,-0.18 0.452,-0.189 0.453,-0.202C0.451,-0.256 0.435,-0.305 0.408,-0.351C0.38,-0.396 0.328,-0.418 0.252,-0.416C0.176,-0.413 0.121,-0.382 0.086,-0.323C0.052,-0.264 0.036,-0.201 0.039,-0.133Z" style="fill:rgb(0,135,197);fill-rule:nonzero;"/>
        </g>
        <g transform="matrix(40.5335,0,0,40.5335,1340.81,562.522)">
            <path d="M0.484,-0.038C0.478,-0.063 0.464,-0.073 0.442,-0.069C0.417,-0.063 0.406,-0.049 0.41,-0.026C0.415,0.002 0.411,0.023 0.399,0.036C0.388,0.048 0.379,0.052 0.374,0.046C0.369,0.04 0.364,0.017 0.359,-0.024C0.355,-0.065 0.356,-0.124 0.362,-0.201C0.368,-0.279 0.359,-0.335 0.334,-0.371C0.309,-0.407 0.27,-0.426 0.217,-0.428C0.164,-0.431 0.126,-0.418 0.103,-0.391C0.08,-0.364 0.067,-0.333 0.064,-0.298C0.062,-0.272 0.073,-0.257 0.098,-0.255C0.12,-0.253 0.132,-0.263 0.135,-0.286C0.137,-0.301 0.143,-0.317 0.15,-0.333C0.158,-0.349 0.178,-0.357 0.208,-0.355C0.239,-0.353 0.261,-0.344 0.274,-0.326C0.287,-0.308 0.292,-0.282 0.289,-0.247C0.238,-0.251 0.195,-0.241 0.159,-0.216C0.096,-0.17 0.062,-0.105 0.057,-0.022C0.054,0.047 0.073,0.09 0.112,0.109C0.185,0.128 0.249,0.117 0.307,0.075C0.31,0.084 0.317,0.095 0.328,0.107C0.338,0.119 0.355,0.127 0.378,0.131C0.401,0.135 0.426,0.12 0.454,0.088C0.481,0.055 0.492,0.013 0.484,-0.038ZM0.149,0.044C0.138,0.043 0.132,0.023 0.131,-0.017C0.136,-0.073 0.159,-0.119 0.198,-0.155C0.223,-0.173 0.253,-0.179 0.289,-0.173C0.279,-0.115 0.278,-0.057 0.287,0C0.245,0.029 0.2,0.044 0.149,0.044Z" style="fill:rgb(0,135,197);fill-rule:nonzero;"/>
        </g>
        <g transform="matrix(40.5335,0,0,40.5335,1361.12,562.522)">
            <path d="M0.396,-0.374C0.371,-0.381 0.337,-0.38 0.293,-0.37C0.249,-0.36 0.216,-0.337 0.192,-0.302L0.192,-0.362C0.192,-0.378 0.187,-0.389 0.176,-0.396C0.165,-0.403 0.153,-0.404 0.142,-0.399L0.092,-0.376C0.076,-0.367 0.071,-0.352 0.077,-0.331C0.086,-0.31 0.1,-0.303 0.118,-0.311L0.118,0.092C0.118,0.117 0.131,0.13 0.155,0.13C0.18,0.131 0.192,0.118 0.192,0.093L0.192,-0.153C0.211,-0.216 0.242,-0.258 0.283,-0.279C0.325,-0.3 0.357,-0.308 0.379,-0.304C0.403,-0.299 0.418,-0.308 0.425,-0.331C0.429,-0.356 0.42,-0.37 0.396,-0.374Z" style="fill:rgb(0,135,197);fill-rule:nonzero;"/>
        </g>
        <g transform="matrix(40.5335,0,0,40.5335,1381.38,562.522)">
            <path d="M0.371,-0.425C0.353,-0.422 0.344,-0.414 0.344,-0.401C0.306,-0.429 0.25,-0.432 0.177,-0.41C0.103,-0.388 0.062,-0.317 0.054,-0.197C0.046,-0.077 0.07,0.009 0.126,0.062C0.182,0.114 0.234,0.137 0.283,0.129C0.331,0.122 0.373,0.101 0.407,0.068C0.442,0.034 0.459,-0.012 0.459,-0.072C0.459,-0.096 0.446,-0.109 0.421,-0.109C0.396,-0.109 0.384,-0.097 0.384,-0.072C0.384,-0.026 0.37,0.007 0.342,0.027C0.315,0.047 0.289,0.058 0.265,0.062C0.241,0.066 0.211,0.047 0.173,0.007C0.135,-0.033 0.118,-0.086 0.12,-0.153C0.123,-0.22 0.135,-0.27 0.158,-0.302C0.18,-0.334 0.215,-0.35 0.261,-0.352C0.308,-0.353 0.34,-0.327 0.358,-0.274C0.366,-0.252 0.382,-0.242 0.406,-0.244C0.429,-0.249 0.438,-0.264 0.433,-0.289L0.414,-0.392C0.409,-0.418 0.395,-0.429 0.371,-0.425Z" style="fill:rgb(0,135,197);fill-rule:nonzero;"/>
        </g>
        <g transform="matrix(40.5335,0,0,40.5335,1401.65,562.522)">
            <path d="M0.337,-0.379C0.308,-0.392 0.275,-0.387 0.236,-0.364C0.197,-0.341 0.172,-0.323 0.161,-0.31L0.161,-0.53C0.161,-0.553 0.149,-0.565 0.124,-0.566C0.099,-0.567 0.087,-0.554 0.087,-0.528L0.087,0.099C0.087,0.124 0.099,0.136 0.124,0.136C0.149,0.134 0.161,0.123 0.161,0.101L0.161,-0.199C0.229,-0.272 0.28,-0.307 0.313,-0.304C0.33,-0.294 0.339,-0.257 0.338,-0.191L0.338,0.098C0.339,0.122 0.351,0.134 0.374,0.135C0.4,0.135 0.413,0.123 0.412,0.099L0.412,-0.191C0.413,-0.305 0.388,-0.368 0.337,-0.379Z" style="fill:rgb(0,135,197);fill-rule:nonzero;"/>
        </g>
    </g>
</svg>
